<svg xmlns="http://www.w3.org/2000/svg" version="1.1" xmlns:xlink="http://www.w3.org/1999/xlink" xmlns:svgjs="http://svgjs.dev/svgjs" viewBox="0 0 800 800"><g fill="none" stroke-width="0.5" stroke="#f0fdfa" stroke-linecap="round" stroke-dasharray="0.5 4" transform="matrix(1.2,0,0,1.2,-79.99999389648434,-79.99999389648434)"><line x1="587" y1="400" x2="213" y2="400" transform="rotate(0, 400, 400)" opacity="0.88"></line><line x1="647" y1="400" x2="153" y2="400" transform="rotate(4, 400, 400)" opacity="0.90"></line><line x1="396.5" y1="400" x2="403.5" y2="400" transform="rotate(8, 400, 400)" opacity="0.19"></line><line x1="190.5" y1="400" x2="609.5" y2="400" transform="rotate(12, 400, 400)" opacity="0.77"></line><line x1="359.5" y1="400" x2="440.5" y2="400" transform="rotate(16, 400, 400)" opacity="0.32"></line><line x1="707.5" y1="400" x2="92.5" y2="400" transform="rotate(20, 400, 400)" opacity="0.72"></line><line x1="213" y1="400" x2="587" y2="400" transform="rotate(24, 400, 400)" opacity="0.47"></line><line x1="391" y1="400" x2="409" y2="400" transform="rotate(28, 400, 400)" opacity="0.14"></line><line x1="221.5" y1="400" x2="578.5" y2="400" transform="rotate(32, 400, 400)" opacity="0.63"></line><line x1="270" y1="400" x2="530" y2="400" transform="rotate(36, 400, 400)" opacity="0.19"></line><line x1="712.5" y1="400" x2="87.5" y2="400" transform="rotate(40, 400, 400)" opacity="0.26"></line><line x1="246" y1="400" x2="554" y2="400" transform="rotate(44, 400, 400)" opacity="0.84"></line><line x1="397" y1="400" x2="403" y2="400" transform="rotate(48, 400, 400)" opacity="0.50"></line><line x1="180" y1="400" x2="620" y2="400" transform="rotate(52, 400, 400)" opacity="0.43"></line><line x1="410" y1="400" x2="390" y2="400" transform="rotate(56, 400, 400)" opacity="0.36"></line><line x1="415.5" y1="400" x2="384.5" y2="400" transform="rotate(60, 400, 400)" opacity="0.43"></line><line x1="616.5" y1="400" x2="183.5" y2="400" transform="rotate(64, 400, 400)" opacity="0.99"></line><line x1="698" y1="400" x2="102" y2="400" transform="rotate(68, 400, 400)" opacity="0.60"></line><line x1="589.5" y1="400" x2="210.5" y2="400" transform="rotate(72, 400, 400)" opacity="0.22"></line><line x1="252" y1="400" x2="548" y2="400" transform="rotate(76, 400, 400)" opacity="0.62"></line><line x1="660.5" y1="400" x2="139.5" y2="400" transform="rotate(80, 400, 400)" opacity="0.65"></line><line x1="444.5" y1="400" x2="355.5" y2="400" transform="rotate(84, 400, 400)" opacity="0.97"></line><line x1="513" y1="400" x2="287" y2="400" transform="rotate(88, 400, 400)" opacity="0.70"></line><line x1="618" y1="400" x2="182" y2="400" transform="rotate(92, 400, 400)" opacity="0.52"></line><line x1="283.5" y1="400" x2="516.5" y2="400" transform="rotate(96, 400, 400)" opacity="0.87"></line><line x1="608.5" y1="400" x2="191.5" y2="400" transform="rotate(100, 400, 400)" opacity="0.32"></line><line x1="299.5" y1="400" x2="500.5" y2="400" transform="rotate(104, 400, 400)" opacity="0.81"></line><line x1="670.5" y1="400" x2="129.5" y2="400" transform="rotate(108, 400, 400)" opacity="0.66"></line><line x1="611.5" y1="400" x2="188.5" y2="400" transform="rotate(112, 400, 400)" opacity="0.94"></line><line x1="301" y1="400" x2="499" y2="400" transform="rotate(116, 400, 400)" opacity="0.26"></line><line x1="721.5" y1="400" x2="78.5" y2="400" transform="rotate(120, 400, 400)" opacity="0.99"></line><line x1="687.5" y1="400" x2="112.5" y2="400" transform="rotate(124, 400, 400)" opacity="0.33"></line><line x1="568.5" y1="400" x2="231.5" y2="400" transform="rotate(128, 400, 400)" opacity="0.62"></line><line x1="725" y1="400" x2="75" y2="400" transform="rotate(132, 400, 400)" opacity="0.69"></line><line x1="669.5" y1="400" x2="130.5" y2="400" transform="rotate(136, 400, 400)" opacity="0.43"></line><line x1="612.5" y1="400" x2="187.5" y2="400" transform="rotate(140, 400, 400)" opacity="0.41"></line><line x1="369.5" y1="400" x2="430.5" y2="400" transform="rotate(144, 400, 400)" opacity="0.52"></line><line x1="402.5" y1="400" x2="397.5" y2="400" transform="rotate(148, 400, 400)" opacity="0.36"></line><line x1="671.5" y1="400" x2="128.5" y2="400" transform="rotate(152, 400, 400)" opacity="0.50"></line><line x1="447" y1="400" x2="353" y2="400" transform="rotate(156, 400, 400)" opacity="0.47"></line><line x1="174" y1="400" x2="626" y2="400" transform="rotate(160, 400, 400)" opacity="0.17"></line><line x1="287" y1="400" x2="513" y2="400" transform="rotate(164, 400, 400)" opacity="0.59"></line><line x1="412.5" y1="400" x2="387.5" y2="400" transform="rotate(168, 400, 400)" opacity="0.63"></line><line x1="182.5" y1="400" x2="617.5" y2="400" transform="rotate(172, 400, 400)" opacity="0.08"></line><line x1="611.5" y1="400" x2="188.5" y2="400" transform="rotate(176, 400, 400)" opacity="0.85"></line><line x1="228.5" y1="400" x2="571.5" y2="400" transform="rotate(180, 400, 400)" opacity="0.90"></line><line x1="666.5" y1="400" x2="133.5" y2="400" transform="rotate(184, 400, 400)" opacity="0.23"></line><line x1="310" y1="400" x2="490" y2="400" transform="rotate(188, 400, 400)" opacity="0.62"></line><line x1="204" y1="400" x2="596" y2="400" transform="rotate(192, 400, 400)" opacity="0.88"></line><line x1="417" y1="400" x2="383" y2="400" transform="rotate(196, 400, 400)" opacity="0.36"></line><line x1="192" y1="400" x2="608" y2="400" transform="rotate(200, 400, 400)" opacity="0.85"></line><line x1="670.5" y1="400" x2="129.5" y2="400" transform="rotate(204, 400, 400)" opacity="0.92"></line><line x1="751" y1="400" x2="49" y2="400" transform="rotate(208, 400, 400)" opacity="0.87"></line><line x1="396" y1="400" x2="404" y2="400" transform="rotate(212, 400, 400)" opacity="0.32"></line><line x1="279.5" y1="400" x2="520.5" y2="400" transform="rotate(216, 400, 400)" opacity="0.13"></line><line x1="328.5" y1="400" x2="471.5" y2="400" transform="rotate(220, 400, 400)" opacity="0.69"></line><line x1="690" y1="400" x2="110" y2="400" transform="rotate(224, 400, 400)" opacity="0.84"></line><line x1="554" y1="400" x2="246" y2="400" transform="rotate(228, 400, 400)" opacity="0.26"></line><line x1="615.5" y1="400" x2="184.5" y2="400" transform="rotate(232, 400, 400)" opacity="0.34"></line><line x1="215" y1="400" x2="585" y2="400" transform="rotate(236, 400, 400)" opacity="0.66"></line><line x1="391" y1="400" x2="409" y2="400" transform="rotate(240, 400, 400)" opacity="0.73"></line><line x1="565.5" y1="400" x2="234.5" y2="400" transform="rotate(244, 400, 400)" opacity="0.92"></line><line x1="381" y1="400" x2="419" y2="400" transform="rotate(248, 400, 400)" opacity="0.78"></line><line x1="579" y1="400" x2="221" y2="400" transform="rotate(252, 400, 400)" opacity="0.68"></line><line x1="464" y1="400" x2="336" y2="400" transform="rotate(256, 400, 400)" opacity="0.75"></line><line x1="198" y1="400" x2="602" y2="400" transform="rotate(260, 400, 400)" opacity="0.82"></line><line x1="402.5" y1="400" x2="397.5" y2="400" transform="rotate(264, 400, 400)" opacity="0.44"></line><line x1="545" y1="400" x2="255" y2="400" transform="rotate(268, 400, 400)" opacity="0.46"></line><line x1="612" y1="400" x2="188" y2="400" transform="rotate(272, 400, 400)" opacity="0.63"></line><line x1="570.5" y1="400" x2="229.5" y2="400" transform="rotate(276, 400, 400)" opacity="0.86"></line><line x1="165.5" y1="400" x2="634.5" y2="400" transform="rotate(280, 400, 400)" opacity="0.75"></line><line x1="694.5" y1="400" x2="105.5" y2="400" transform="rotate(284, 400, 400)" opacity="0.38"></line><line x1="457.5" y1="400" x2="342.5" y2="400" transform="rotate(288, 400, 400)" opacity="0.71"></line><line x1="521" y1="400" x2="279" y2="400" transform="rotate(292, 400, 400)" opacity="0.90"></line><line x1="694.5" y1="400" x2="105.5" y2="400" transform="rotate(296, 400, 400)" opacity="0.56"></line><line x1="382.5" y1="400" x2="417.5" y2="400" transform="rotate(300, 400, 400)" opacity="0.67"></line><line x1="445.5" y1="400" x2="354.5" y2="400" transform="rotate(304, 400, 400)" opacity="0.31"></line><line x1="563.5" y1="400" x2="236.5" y2="400" transform="rotate(308, 400, 400)" opacity="0.94"></line><line x1="346.5" y1="400" x2="453.5" y2="400" transform="rotate(312, 400, 400)" opacity="0.73"></line><line x1="704.5" y1="400" x2="95.5" y2="400" transform="rotate(316, 400, 400)" opacity="0.69"></line><line x1="357.5" y1="400" x2="442.5" y2="400" transform="rotate(320, 400, 400)" opacity="0.31"></line><line x1="485.5" y1="400" x2="314.5" y2="400" transform="rotate(324, 400, 400)" opacity="0.48"></line><line x1="649" y1="400" x2="151" y2="400" transform="rotate(328, 400, 400)" opacity="0.87"></line><line x1="499" y1="400" x2="301" y2="400" transform="rotate(332, 400, 400)" opacity="0.92"></line><line x1="468" y1="400" x2="332" y2="400" transform="rotate(336, 400, 400)" opacity="0.73"></line></g></svg>